<?xml version="1.0" standalone="no"?><!DOCTYPE svg PUBLIC "-//W3C//DTD SVG 1.1//EN" "http://www.w3.org/Graphics/SVG/1.1/DTD/svg11.dtd"><svg class="icon" width="200px" height="200.00px" viewBox="0 0 1024 1024" version="1.1" xmlns="http://www.w3.org/2000/svg"><path fill="#333333" d="M1008.809531 766.020414l-145.602146 168.06781c-7.890714 9.100262-18.839067 14.71719-30.854728 14.71719-24.171516 0-43.722804-22.537296-43.722804-50.40704 0-13.934361 4.904707-26.517957 12.796444-35.618219l71.02359-81.971943H482.850611c-24.100908 0-43.651173-22.536272-43.651172-50.406017 0-27.798113 19.550265-50.40704 43.651172-50.40704h389.599276l-71.02359-81.900311c-7.891737-9.171893-12.796444-21.75549-12.796444-35.689851 0-27.832905 19.550265-50.406017 43.722804-50.406016 12.015661 0 22.964014 5.65172 30.854728 14.787798l145.602146 167.996178c7.891737 9.100262 12.797467 21.75549 12.797467 35.619242-0.001023 13.935384-4.906753 26.51898-12.797467 35.618219zM657.601634 293.596781H439.199439l2.274809-218.403218H147.995147c-40.238446 0-72.801073 32.596396-72.801073 72.801073v728.008682c0 40.168862 32.561603 72.802096 72.801073 72.802096h436.805414c40.168862 0 72.801073-32.633235 72.801073-72.802096h72.802096v72.802096c0 40.167838-32.633235 72.801073-72.802096 72.801073H75.194074c-40.23947 0-72.801073-32.633235-72.801072-72.801073V75.193563c0-40.203654 32.56058-72.801073 72.801072-72.801073h450.455296l204.753337 218.402195v291.204292h-72.802096V293.596781h0.001023z"  /></svg>