<?xml version="1.0" standalone="no"?><!DOCTYPE svg PUBLIC "-//W3C//DTD SVG 1.1//EN" "http://www.w3.org/Graphics/SVG/1.1/DTD/svg11.dtd"><svg class="icon" width="200px" height="200.00px" viewBox="0 0 1024 1024" version="1.1" xmlns="http://www.w3.org/2000/svg"><path fill="#333333" d="M511.999488 2.393513c-281.464463 0-509.606487 228.177839-509.606486 509.606487 0 281.46344 228.142024 509.606487 509.606486 509.606487 281.46344 0 509.606487-228.143047 509.606487-509.606487 0-281.428647-228.143047-509.606487-509.606487-509.606487z m205.392904 646.819569c18.839067 18.839067 18.839067 49.339732 0 68.179822-18.84009 18.839067-49.340755 18.839067-68.179822 0l-136.309502-136.324852-136.339178 136.324852c-18.768459 18.839067-49.339732 18.839067-68.108191 0-18.84009-18.84009-18.84009-49.340755 0-68.179822l136.292106-136.306433L308.455699 376.599194c-18.84009-18.84009-18.84009-49.339732 0-68.179822 18.768459-18.804275 49.339732-18.804275 68.108191 0l136.339178 136.324851 136.309502-136.324851c18.839067-18.804275 49.339732-18.804275 68.179822 0 18.839067 18.84009 18.839067 49.339732 0 68.179822L581.071633 512.906649l136.320759 136.306433z"  /></svg>