<?xml version="1.0" standalone="no"?><!DOCTYPE svg PUBLIC "-//W3C//DTD SVG 1.1//EN" "http://www.w3.org/Graphics/SVG/1.1/DTD/svg11.dtd"><svg class="icon" width="200px" height="200.00px" viewBox="0 0 1024 1024" version="1.1" xmlns="http://www.w3.org/2000/svg"><path fill="#333333" d="M822.541197 410.103262H356.729146V239.965304c0-56.04955 69.175499-119.065769 155.270342-119.06577 86.033445 0 155.270343 62.395072 155.270343 119.06577v51.01079h0.621147c3.919263 28.615735 29.114085 50.948369 59.533908 50.948369s55.613622-22.332634 59.532885-50.948369h0.62217V239.965304c0-131.196041-123.544781-237.57179-276.266068-237.571791-152.035672 0-275.580452 106.375749-275.580452 237.571791v170.137958H201.458803c-56.920384 0-103.513562 45.847188-103.513562 101.896738v407.710772c0 56.048527 46.593178 101.895715 103.513562 101.895715h621.083417c56.920384 0 103.513562-45.847188 103.513562-101.895715V512c-0.001023-56.04955-46.594201-101.896738-103.514585-101.896738zM563.756269 786.522354v46.531779c0 29.300326-23.328311 52.877301-51.756781 52.877301-28.490891 0-51.756781-23.576975-51.756781-52.877301v-46.531779c-40.746006-18.475793-69.236897-59.2218-69.236897-105.690134 0-65.007573 54.369282-117.262704 120.993678-117.262704s120.93228 52.877301 120.93228 117.262704c0 46.468334-28.428469 86.593194-69.175499 105.690134z"  /></svg>