<?xml version="1.0" standalone="no"?><!DOCTYPE svg PUBLIC "-//W3C//DTD SVG 1.1//EN" "http://www.w3.org/Graphics/SVG/1.1/DTD/svg11.dtd"><svg class="icon" width="200px" height="200.00px" viewBox="0 0 1024 1024" version="1.1" xmlns="http://www.w3.org/2000/svg"><path fill="#333333" d="M985.039151 220.799802H803.07689v-72.813353c0-80.422657-65.13344-145.591913-145.556097-145.591912H366.479207c-80.422657 0-145.556097 65.170279-145.556097 145.591912v72.813353H38.959825c-20.051685 0-36.335556 16.282848-36.335556 36.406164 0 20.087501 16.283872 36.371372 36.335556 36.371373h946.079326c20.052708 0 36.33658-16.283872 36.33658-36.371373 0-20.123316-16.283872-36.406165-36.33658-36.406164z m-691.373296 0c0-80.422657 65.205071-145.591913 145.555073-145.591913h145.55712c80.351026 0 145.555074 65.170279 145.555074 145.591913H293.665855z m509.411035 582.40142c0 80.422657-65.13344 145.590889-145.556097 145.590889H366.479207c-80.422657 0-145.556097-65.169255-145.556097-145.590889V366.390691h-72.813352v509.624906c0 80.386842 65.205071 145.590889 145.556097 145.59089H730.334145c80.351026 0 145.556097-65.205071 145.556097-145.59089V366.390691h-72.813352v436.810531z m-363.855962-36.406165V402.796856c0-20.122293-16.282848-36.406165-36.406164-36.406165-20.052708 0-36.335556 16.283872-36.335557 36.406165v363.998201c0 20.122293 16.282848 36.406165 36.335557 36.406165 20.123316 0 36.406165-16.283872 36.406164-36.406165z m218.298842 0V402.796856c0-20.122293-16.282848-36.406165-36.335557-36.406165-20.123316 0-36.406165 16.283872-36.406165 36.406165v363.998201c0 20.122293 16.282848 36.406165 36.406165 36.406165 20.052708 0 36.335556-16.283872 36.335557-36.406165z"  /></svg>