<?xml version="1.0" standalone="no"?><!DOCTYPE svg PUBLIC "-//W3C//DTD SVG 1.1//EN" "http://www.w3.org/Graphics/SVG/1.1/DTD/svg11.dtd"><svg class="icon" width="200px" height="200.00px" viewBox="0 0 1024 1024" version="1.1" xmlns="http://www.w3.org/2000/svg"><path fill="#333333" d="M956.854229 878.079606c0 116.475781-228.848105 143.526881-443.765943 143.526881-213.860762 0-445.942515-27.051099-445.942515-143.526881v-32.212656c0-85.320201 157.954475-172.693154 292.278763-220.514299 9.700943-3.109828 55.906288-28.109198 30.098505-94.64866-66.602907-66.572208-117.098975-174.714184-117.098975-280.805454C272.424064 87.652316 381.997646 2.394537 510.911714 2.394537c128.975467 0 239.668545 85.257779 239.668545 247.504 0 106.09127-50.496068 213.208916-117.15935 279.748378-25.745361 75.930343 15.048741 93.591585 21.516036 95.705736 141.847635 45.769416 299.803133 132.084271 299.803133 220.514299v32.212656h2.114151z"  /></svg>